<svg version="1.1" xmlns="http://www.w3.org/2000/svg" xmlns:xlink="http://www.w3.org/1999/xlink" x="0px" y="0px" viewBox="0 0 281.1 80.8" enable-background="new 0 0 281.1 80.8" xml:space="preserve"> <g> <g> <path class="svgKeepaShadow" fill="#CDCCCC" d="M116.7,60.4H109c0-0.3-1.3-2.3-4-6.1c-3.1-4.4-5.9-8.1-8.5-11c-3.5-3.9-6-5.9-7.7-5.9h-1.1 c0,5.5,0.1,13.1,0.4,23h-6.6c0.4-7.3,0.5-15.3,0.5-24c0-8.2-0.2-15.5-0.5-21.7h6.6c-0.2,6.2-0.4,12.6-0.4,19h0.8 c1.3,0,4.5-3,9.7-9c5.1-6,7.7-9.3,7.7-10h7.3c0,0.7-2.5,3.6-7.5,8.7c-5,5.1-8.7,8.5-11.2,10.3V34c2.7,1,7.2,5.7,13.5,14 C113.8,55.5,116.7,59.7,116.7,60.4z"></path> <path class="svgKeepaShadow" fill="#CDCCCC" d="M151,39.8c0,1,0,2.3-0.1,4.1l-24.2,0.4c0.2,3.4,1.6,6.3,4,8.6c2.4,2.3,5.6,3.5,9.6,3.5 c3.6,0,6.9-0.4,10-1.3l-0.6,5c-2.3,0.9-5.6,1.4-9.9,1.4c-6.1,0-10.7-1.7-13.9-5C122.6,53,121,49,121,44.2c0-5.1,1.5-9.5,4.4-13.2 c2.9-3.7,6.8-5.5,11.8-5.5c4.5,0,8,1.3,10.3,4S151,35.6,151,39.8z M145.1,39.8c0-6.6-2.8-9.9-8.3-9.9c-5.6,0-8.9,3.4-9.9,10.3 L145.1,39.8z"></path> <path class="svgKeepaShadow" fill="#CDCCCC" d="M187.9,39.8c0,1,0,2.3-0.1,4.1l-24.2,0.4c0.2,3.4,1.6,6.3,4,8.6c2.4,2.3,5.6,3.5,9.6,3.5 c3.6,0,6.9-0.4,10-1.3l-0.6,5c-2.3,0.9-5.6,1.4-9.9,1.4c-6.1,0-10.7-1.7-13.9-5c-3.2-3.3-4.8-7.4-4.8-12.2c0-5.1,1.5-9.5,4.4-13.2 s6.8-5.5,11.8-5.5c4.5,0,8,1.3,10.3,4S187.9,35.6,187.9,39.8z M182,39.8c0-6.6-2.8-9.9-8.3-9.9c-5.6,0-8.9,3.4-9.9,10.3L182,39.8z "></path> <path class="svgKeepaShadow" fill="#CDCCCC" d="M227.9,42.3c0,5.1-1.4,9.5-4.3,13.3c-2.9,3.8-6.9,5.7-12.1,5.7c-4.3,0-7.1-0.8-8.5-2.3h-0.4 c0,6.5,0.1,12.3,0.2,17.4h-6.6c0.5-6.2,0.8-13.9,0.8-23.1c0-11.3-0.6-20-1.8-26.2l6.2-0.9l0.5,3.5h0.4c2.3-2.6,6-4,11-4 c4.5,0,8,1.6,10.6,4.9S227.9,37.8,227.9,42.3z M221.7,43.2c0-3.5-0.9-6.4-2.7-8.9c-1.8-2.5-4.4-3.7-7.7-3.7 c-4.2,0-7.2,1.3-9.1,3.8c0.4,7.9,0.6,14.6,0.6,20.3c1.9,1.6,4.4,2.4,7.4,2.4c3.9,0,6.8-1.4,8.7-4.1 C220.7,50.3,221.7,47,221.7,43.2z"></path> <path class="svgKeepaShadow" fill="#CDCCCC" d="M262.4,60.4l-5.5,0.2c-0.3-1.1-0.4-2.2-0.4-3.3h-0.4c-2.9,2.6-6.8,3.9-11.8,3.9c-2.7,0-5-0.8-7-2.4 s-2.9-3.8-2.9-6.8c0-3.6,1.5-6.5,4.6-8.7c3-2.2,8.7-3.3,17-3.5c0.1-0.6,0.1-1.2,0.1-1.9c0-2.9-0.8-4.8-2.3-5.8 c-1.5-1-3.9-1.4-7-1.4c-3.7,0-7.3,0.5-10.9,1.4l0.6-4.9c3.5-1,7.6-1.5,12.1-1.5c4.2,0,7.4,0.9,9.7,2.6s3.4,4.7,3.4,8.8 c0,1.1-0.1,3.1-0.2,6c-0.1,2.9-0.2,4.8-0.2,5.8C261.5,53.3,261.8,57.1,262.4,60.4z M256.2,53.6c-0.1-3.6-0.2-6.8-0.2-9.6 c-4.4,0-7.8,0.3-10.1,1c-3.8,1.2-5.8,3.4-5.8,6.7c0,3.2,2.3,4.8,6.8,4.8C250.8,56.5,253.9,55.5,256.2,53.6z"></path> </g> <g> <g> <path class="svgKeepa" fill="#FFFFFF" d="M115.3,59h-7.7c0-0.3-1.3-2.3-4-6.1c-3.1-4.4-5.9-8.1-8.5-11c-3.5-3.9-6-5.9-7.7-5.9h-1.1 c0,5.5,0.1,13.1,0.4,23h-6.6c0.4-7.3,0.5-15.3,0.5-24c0-8.2-0.2-15.5-0.5-21.7h6.6c-0.2,6.2-0.4,12.6-0.4,19h0.8 c1.3,0,4.5-3,9.7-9c5.1-6,7.7-9.3,7.7-10h7.3c0,0.7-2.5,3.6-7.5,8.7c-5,5.1-8.7,8.5-11.2,10.3v0.4c2.7,1,7.2,5.7,13.5,14 C112.4,54.1,115.3,58.3,115.3,59z"></path> <path class="svgKeepa" fill="#FFFFFF" d="M149.5,38.4c0,1,0,2.3-0.1,4.1l-24.2,0.4c0.2,3.4,1.6,6.3,4,8.6c2.4,2.3,5.6,3.5,9.6,3.5 c3.6,0,6.9-0.4,10-1.3l-0.6,5c-2.3,0.9-5.6,1.4-9.9,1.4c-6.1,0-10.7-1.7-13.9-5c-3.2-3.3-4.8-7.4-4.8-12.2 c0-5.1,1.5-9.5,4.4-13.2s6.8-5.5,11.8-5.5c4.5,0,8,1.3,10.3,4S149.5,34.2,149.5,38.4z M143.7,38.4c0-6.6-2.8-9.9-8.3-9.9 c-5.6,0-8.9,3.4-9.9,10.3L143.7,38.4z"></path> <path class="svgKeepa" fill="#FFFFFF" d="M186.5,38.4c0,1,0,2.3-0.1,4.1l-24.2,0.4c0.2,3.4,1.6,6.3,4,8.6c2.4,2.3,5.6,3.5,9.6,3.5 c3.6,0,6.9-0.4,10-1.3l-0.6,5c-2.3,0.9-5.6,1.4-9.9,1.4c-6.1,0-10.7-1.7-13.9-5c-3.2-3.3-4.8-7.4-4.8-12.2 c0-5.1,1.5-9.5,4.4-13.2s6.8-5.5,11.8-5.5c4.5,0,8,1.3,10.3,4S186.5,34.2,186.5,38.4z M180.6,38.4c0-6.6-2.8-9.9-8.3-9.9 c-5.6,0-8.9,3.4-9.9,10.3L180.6,38.4z"></path> <path class="svgKeepa" fill="#FFFFFF" d="M226.5,40.9c0,5.1-1.4,9.5-4.3,13.3c-2.9,3.8-6.9,5.7-12.1,5.7c-4.3,0-7.1-0.8-8.5-2.3h-0.4 c0,6.5,0.1,12.3,0.2,17.4h-6.6c0.5-6.2,0.8-13.9,0.8-23.1c0-11.3-0.6-20-1.8-26.2l6.2-0.9l0.5,3.5h0.4c2.3-2.6,6-4,11-4 c4.5,0,8,1.6,10.6,4.9S226.5,36.4,226.5,40.9z M220.2,41.8c0-3.5-0.9-6.4-2.7-8.9c-1.8-2.5-4.4-3.7-7.7-3.7 c-4.2,0-7.2,1.3-9.1,3.8c0.4,7.9,0.6,14.6,0.6,20.3c1.9,1.6,4.4,2.4,7.4,2.4c3.9,0,6.8-1.4,8.7-4.1 C219.3,48.9,220.2,45.6,220.2,41.8z"></path> <path class="svgKeepa" fill="#FFFFFF" d="M261,59l-5.5,0.2c-0.3-1.1-0.4-2.2-0.4-3.3h-0.4c-2.9,2.6-6.8,3.9-11.8,3.9c-2.7,0-5-0.8-7-2.4 s-2.9-3.8-2.9-6.8c0-3.6,1.5-6.5,4.6-8.7c3-2.2,8.7-3.3,17-3.5c0.1-0.6,0.1-1.2,0.1-1.9c0-2.9-0.8-4.8-2.3-5.8 c-1.5-1-3.9-1.4-7-1.4c-3.7,0-7.3,0.5-10.9,1.4l0.6-4.9c3.5-1,7.6-1.5,12.1-1.5c4.2,0,7.4,0.9,9.7,2.6s3.4,4.7,3.4,8.8 c0,1.1-0.1,3.1-0.2,6c-0.1,2.9-0.2,4.8-0.2,5.8C260.1,51.9,260.4,55.7,261,59z M254.8,52.2c-0.1-3.6-0.2-6.8-0.2-9.6 c-4.4,0-7.8,0.3-10.1,1c-3.8,1.2-5.8,3.4-5.8,6.7c0,3.2,2.3,4.8,6.8,4.8C249.4,55.1,252.5,54.1,254.8,52.2z"></path> </g> </g> </g> <g> <g> <path class="svgKeepaShadow" fill="#CDCCCC" d="M46.4,45.8h-13v13H21.6v-13h-13V34h13V21h11.8v13h13V45.8z M22.2,34.6v10.6h10.4V34.6H22.2z"></path> </g> <g> <g> <path class="svgKeepa" fill="#FFFFFF" d="M45,44.4h-13v13H20.1v-13h-13V32.6h13v-13h11.8v13h13V44.4z M20.8,33.2v10.6h10.4V33.2H20.8z"></path> </g> </g> </g> </svg>