<?xml version="1.0" encoding="utf-8"?>
<!-- Generator: Adobe Illustrator 23.0.0, SVG Export Plug-In . SVG Version: 6.00 Build 0)  -->
<svg version="1.1" id="Layer_1" xmlns="http://www.w3.org/2000/svg" xmlns:xlink="http://www.w3.org/1999/xlink" x="0px" y="0px"
	 viewBox="0 0 433 132" style="enable-background:new 0 0 433 132;" xml:space="preserve">
<style type="text/css">
	.st0{fill:#1D2088;}
</style>
<g>
	<path class="st0" d="M129.2,80.7c-1,1.9-1.9,3.8-2.9,5.5s-2,3.2-2.9,4.4c-1.5-1.9-2.7-3.7-3.7-5.7c-0.9-1.9-1.5-4.1-1.7-6.4
		c1.1-0.2,2-0.3,2.7-0.3c0.7-0.1,1.4-0.1,2.1-0.1c0.7-0.1,1.4-0.1,2.2-0.1h3.3C129.4,78.2,129.7,79.2,129.2,80.7 M129.2,105.8
		c-1.7-1.5-3.6-3.5-5.7-5.9c-1.5,1.8-3.1,3.4-5,4.9c-1.8,1.5-3.8,3-5.8,4.4s-3.9,2.6-5.7,3.4c-1.3,0.7-2.4,1.1-3.2,1.2
		c-0.3,0.1-0.5,0.1-0.7,0.1c-0.7,0-1.4-0.2-2.1-0.6l-1.5-3.3c0,0-1.9-1.5,2.7-7.7c2.7-3.6,5.6-0.4,10-2.8c2.7-1.4,4.9-2.8,6.4-3.7
		c0.4-0.4,0.8-0.8,1-1.2c-1-1.5-1.9-3.2-2.8-5c-0.8-1.8-1.6-3.6-2.1-5.3c-0.6,1.2-1.3,2.4-2.2,3.7c-0.8,1.3-1.7,2.5-2.6,3.7
		c-0.6,0.7-1.1,1.3-1.6,1.9c-0.3,0.3-0.6,0.6-0.9,0.9c-0.7,0.7-1.4,1-2,1c-0.8,0.1-1.4,0.1-1.9-0.1c-0.5-0.1-1-0.4-1.6-0.7
		c-0.6-0.3-1-0.6-1.4-1.1c-0.2-0.3-0.4-0.7-0.4-1.2c-0.6-1.1-0.8-3.1,0.4-6.5c1.4-4.3,5.1-2.1,8.6-5.7c1.1-1.2,2.2-2.3,3.1-3.3
		c1.4-2.4,2.4-4.4,2.9-5.9c0.3-1.9,0.7-3.4,1.2-4.5c0.4-1.1,1.2-1.6,2.2-1.6c0.9,0,1.5,0.2,1.8,0.6s0.5,0.9,0.6,1.6s0.1,1.4,0.1,2.2
		c0,0.8-0.2,1.8-0.6,3c6.3-0.4,10.3-0.9,12-1.4c0.8,0,1.5,0.1,2.1,0.4c0.7,0.2,1.2,0.6,1.7,1.1s0.9,1.1,1.2,1.8
		c0.3,0.7,0.5,1.4,0.5,2.2c0,0.6-0.4,1.4-1.2,2.5s-1.4,1.9-1.8,2.6c-0.4,0.6-1.5,2.7-3.2,6.1s-3.1,6-4.2,7.6c1.5,1.6,3.1,3,5,4.1
		c1.8,1.1,3.8,2,5.9,2.8c1.5,0.6,2.8,1.1,3.8,1.5c9.2-10.5,14.8-24.3,14.8-39.4c0-33-26.8-59.8-59.8-59.8S37.4,31.2,37.4,64.2
		c0,6.4,1,12.5,2.9,18.2c0.9-0.3,1.9-0.5,3-0.5c5.1,0,9.2,4.1,9.2,9.2c0,3.1-1.6,5.9-4,7.6C59.3,114,77.2,124,97.4,124
		c14.4,0,27.5-5.1,37.8-13.5c-0.2-0.2-0.5-0.3-0.8-0.5C132.8,108.7,130.9,107.3,129.2,105.8 M152.2,106c-0.7,0-2.2-0.3-4.6-0.7
		c-1.3-0.5-2.6-1-3.9-1.4c-0.4-0.1-0.8-0.3-1.2-0.4c-2.2,2.5-4.5,4.8-7.1,6.9c1.6,1,2.9,1.7,4,2.3c1.3,0.6,2.4,0.9,3.3,0.9
		c0.9,0,1.9-0.2,3-0.6s2.3-0.9,3.4-1.5c1.1-0.6,2.1-1.3,2.9-2.1c0.8-0.8,1.2-1.6,1.2-2.5C153.2,106.3,152.9,106,152.2,106 M34.5,91
		c0,5,4.1,9.1,9.2,9.1c1.9,0,3.7-0.6,5.1-1.6c-3.5-4.9-6.2-10.4-8.1-16.2C37.1,83.6,34.5,87,34.5,91 M68.9,41.6
		c-1.1,3.3-1.3,7.5-1.5,11c0.2-3.1,1.1-7.8,2.1-11.2C69.3,41.5,69.1,41.6,68.9,41.6 M67.4,52.6c0,0.3-0.1,0.7-0.1,1.1
		c2-1.6,6.3-4.8,11.3-7.3c0.4-3.6,0.9-6.6,1.2-8.6c-2.4,0.8-7.2,2.8-10.4,3.7C68.5,44.8,67.6,49.5,67.4,52.6 M67.7,62.7
		c0,0,1.1-0.1,2.8-0.1c1.9,0,4.4,0.1,7.1,0.4c0-1.9,0.1-3.8,0.2-5.6c-3.1-0.5-6.6,0.1-10.5-1.1c-0.1,1.8-0.2,3.6-0.2,5.4
		C67,69.2,67.8,76,70.5,79.3c0.2-0.1,0.5-0.2,0.5-0.2c1.3-0.4,3.4-1.2,7.6-1.2c-0.3-1.4-0.5-2.9-0.7-4.5
		C75,71.5,71.5,68.1,67.7,62.7 M129.2,80.7c-1,1.9-1.9,3.8-2.9,5.5s-2,3.2-2.9,4.4c-1.5-1.9-2.7-3.7-3.7-5.7
		c-0.9-1.9-1.5-4.1-1.7-6.4c1.1-0.2,2-0.3,2.7-0.3c0.7-0.1,1.4-0.1,2.1-0.1c0.7-0.1,1.4-0.1,2.2-0.1h3.3
		C129.4,78.2,129.7,79.2,129.2,80.7 M69.5,41.4c3.2-0.9,7.9-2.8,10.4-3.7c-2.6,0.9-6.8,1.6-10,2.4C69.7,40.6,69.6,41,69.5,41.4
		 M36.6,75.8c0-8-6.5-14.5-14.5-14.5S7.6,67.8,7.6,75.8c0,4.9,2.5,9.3,6.3,11.9c2.3,1.6,5.2,2.6,8.2,2.6h0.1
		C30.1,90.3,36.6,83.8,36.6,75.8 M151.2,58.1c0,0.2,0,0.4,0,0.6c-0.1,1.1-0.3,2.1-0.7,3.1c-0.3,1-0.8,1.9-1.4,2.9
		c-0.6,1-1.4,1.8-2.3,2.4c-0.9,0.6-2.2,1-3.9,1c-1.1,0-2.2,0.1-3.2,0.1c-1.9,0-3.6,0-5-0.1c-2.3-0.1-4.3-0.4-6.2-1
		c-1.9-0.6-3.4-1.5-4.6-2.7c-0.7-0.7-1.2-1.6-1.5-2.5c-0.2-0.6-0.3-1.2-0.3-1.9c-0.3-2.6-0.4-5.5-0.4-8.6c0-1.8,0.2-3,0.7-3.7
		c0.4-0.7,1.3-1.1,2.6-1.1c1,0,1.7,0.6,1.9,1.9c0.3,1.3,2.4,3.4,2.4,6.6c-0.4,1.6-2.5,2.8-2.2,3.7s0.8,1.6,1.5,2s1.5,0.6,2.3,0.7
		c0.8,0.1,1.5,0.1,2.1,0.1c1.2,0,2.3-0.1,3.4-0.2c6.9-2,7.8-4.2,12.4-8.9C152.1,49.3,151.8,54.3,151.2,58.1 M118,51.3
		c-0.1,1.4-0.4,2.9-0.8,4.4c-0.3,1.1-0.9,2.2-1.5,3.3c-0.2,0.3-0.4,0.7-0.6,1c-2,2.1-4.6,4.2-7.7,6.2s-5.2,3-6.1,3
		c-0.6,0-1.2-0.1-1.7-0.4c-0.5-0.2-1.1-0.7-1.8-1.2c-0.7-0.6-1.2-1.1-1.6-1.6c-0.2,0-0.2-0.1-0.3-0.2c-1.6-2.2-2.6-5.2-0.1-4.6
		c3.1,0.7,9.8-2.4,13.7-4.3c0.3-0.3,0.6-0.5,0.8-0.8c0.2-0.2,0.3-0.3,0.4-0.5c1.2-1.3,1.9-2.4,2.3-3.4c0-2.1,0.2-3.6,0.5-4.3
		s1-1,2.2-0.9c1.1,0,1.8,0.4,2,1.1C118,48.8,118,49.9,118,51.3 M93.8,80.9c0,0,2.9,10.7,2,20.6c0,0-0.2,4.4-2.1,6.3
		c0,0-2.1,1.8-3.7,2.2c0,0-8,2.8-14.8,2c-0.3,0-0.5-0.1-0.8-0.2c-5.9-1.6-3.7-13.2-3.7-13.2s7.2,1,11,0.3c4.8,0,8.7-3.9,8.7-8.6
		c0-4.8-3.9-8.7-8.7-8.7c-3.4,0-6.3,2-7.7,4.9c-0.6-0.4-0.1,0.4-1.2,0.8s-2.3,0.8-3.4-0.5C65.8,82.5,64.9,71.2,65,61
		c0.1-9.6,0.9-18.3,0.9-19.5h-0.1c0,0,1.9-4.4,5-9.8c2.1-3.7,4.9-7.8,8.1-11.4c1.3-1.6,2.8-3,4.3-4.2c2.7-2.3,5.6-4,8.6-4.7
		c3.7-0.8,7.3,0.7,9.2,3.6c2.2,3.4,1.8,8.7-4.2,14c-1.3,1.2-2.9,2.3-4.7,3.4c-2.5,1.5-5.5,3-9.2,4.4c-0.3,1.6-0.8,4.5-1.2,8.3
		c4.3-1.9,8.9-2.9,12.7-1.8c7.7,2.3,8.4,17.2-13.8,14.6c-0.1,1.9-0.1,3.8-0.2,5.7c3.8,0.8,7.4,2.2,9.2,4.6c0.7,0.9,1,2,0.9,3.1
		c-0.2,3.2-3.7,6.3-9.4,3.9c0.1,1,0.3,1.9,0.5,2.8h-0.2c4.3,0.2,4.1,0.7,12.5,2.6L93.8,80.9L93.8,80.9z M78.7,78
		c-0.3-1.4-0.5-2.9-0.7-4.5c-3-2-6.5-5.4-10.4-10.8c0,0,1.1-0.1,2.8-0.1c1.9,0,4.4,0.1,7.1,0.4c0-1.9,0.1-3.8,0.2-5.6
		c-3.1-0.5-6.6,0.1-10.5-1.1c-0.1,1.8-0.2,3.6-0.2,5.4c0,7.5,0.8,14.3,3.5,17.6c0.2-0.1,0.5-0.2,0.5-0.2C72.4,78.8,74.5,78,78.7,78
		 M79.9,37.8c-2.6,0.9-6.8,1.6-10,2.4c-0.1,0.4-0.3,0.8-0.4,1.3c-0.2,0.1-0.4,0.1-0.6,0.2c-1.1,3.3-1.3,7.5-1.5,11
		c0,0.3-0.1,0.7-0.1,1.1c2-1.6,6.3-4.8,11.3-7.3C79.1,42.8,79.5,39.8,79.9,37.8 M145,39.4c0,0.8-0.1,1.5-0.4,2.3
		c-0.3,0.7-0.7,1.4-1.4,1.9c-0.6,0.5-1.5,0.9-2.5,1.2c-1.1,0.2-2.3,0.4-3.7,0.4c-1.8,0.2-5.8,0.3-11.9,0.3c-1.7,0.1-4.6,0.2-8.8,0.3
		c-4.2,0.1-7.2,0.1-9,0.1c-0.1,0-0.3,0-0.4,0c-1.2-0.1-2.1-0.5-2.7-1.3c-0.7-0.9-1-2-1-3.4c0-0.7,0.3-1.6,1-2.5
		c0.3-0.5,0.8-1.1,1.3-1.7c0.1-0.1,0.2-0.2,0.3-0.3c1.5-1.6,3.5-3.9,6-6.7c1.9-1.9,3.4-3.5,4.4-4.7s1.5-2,1.6-2.5
		c0-0.4-0.2-0.7-0.6-0.9c-0.4-0.2-0.5-0.5-0.1-0.9c0.1-0.6,0.6-1,1.4-1.4c0.8-0.3,1.7-0.5,2.5-0.5c1.5,0,2.7,0.5,3.8,1.6
		c1,1.1,1.5,2.2,1.3,3.4c-0.1,0.7-0.5,1.3-1.2,1.9c-0.6,0.5-1.4,1.1-2.3,1.8c-1.9,3-5.6,9.5-5,12.6c2.3,0,4.5,0,6.9-0.1
		c2.6-0.1,4.9-0.2,6.9-0.3c3.4-2,1.3-6.5-0.6-9.4c0,0,0-0.1-0.1-0.1c-1.9-1.8-2.9-3-2.9-3.6c0-0.8,1.3-0.6,4,0.6
		c2.3,1,4.4,2.2,6.3,3.5c0.3,0.2,0.6,0.4,0.9,0.6c2.1,1.5,3.6,3,4.6,4.4C144.4,37.1,144.9,38.3,145,39.4 M69.9,93.7
		c0,3.8-3,6.8-6.8,6.8s-6.8-3-6.8-6.8s3-6.8,6.8-6.8C66.8,86.9,69.9,90,69.9,93.7 M84.9,90.6c0,2.4-1.9,4.4-4.4,4.4
		c-2.4,0-4.4-2-4.4-4.4s2-4.4,4.4-4.4C83,86.2,84.9,88.1,84.9,90.6"/>
	<path class="st0" d="M427.1,74.6c0,19.9-16.1,36-36,36c-10.5,0-19.9-4.5-26.5-11.6c0.2,0,0.3,0,0.5,0c2.9,0,5.2-2.3,5.2-5.2
		c0-2.9-2.3-5.2-5.2-5.2c-2.5,0-4.6,1.8-5.1,4.2c-3.2-5.4-5-11.6-5-18.2c0-19.9,16.1-36,36-36C411,38.6,427.1,54.7,427.1,74.6
		 M397.8,62c-1.3-0.1-2.3-0.2-3-0.2s-1.8,0-3.2-0.1c-1.5,0-3-0.1-4.8-0.1c-0.2,0-0.5,0-0.7,0.1c-0.9,0.1-1.9,0.1-3,0.2
		c-1.4,0.1-2.6,0.2-3.8,0.2c-1.1,0-2,0.1-2.7,0.1c-0.9-0.1-1.6,0.1-2,0.6c-0.2,0.1-0.5,0.3-1,0.6c-0.4,0.3-0.8,0.6-1,0.8
		c-0.2,0.2-0.4,0.5-0.5,0.8s-0.2,0.7-0.2,1c0,0.1,0,0.1,0,0.2h-0.1c0,0,1.2,4.4,2.7,3.7c1-0.5,3.5-3,8.5-4.4c0.9,0.9,2,2.4,2.8,4.7
		v-0.1l0.8,4.2c0,0.1,0,0.2,0,0.2c0,2.8,0,2.6,0,5.4c0,0.9,0,1.8,0,2.7c-0.1,0.8-0.3,1.8-0.5,2.9c-0.1,0.4-0.2,0.7-0.2,1.1
		c-0.6,1.9-1.2,3.3-1.2,3.3s-0.5,0.6-1.3,1.4c-0.3,0.2-0.6,0.5-1,0.8c-2.4,1.8-6,1.1-7.9,0.6c-0.3-0.3-0.6-0.5-1-0.7
		c-2.7-1.4,0,4,0.5,5.2c0.3,0.7,0.8,1.3,1.4,1.9c0.7,0.6,1.4,0.9,2.3,0.9c0.8,0,2.1-0.3,3.6-0.8c1.6-0.6,3-1.3,4.2-2.2
		c1.2-0.9,2.1-2,2.9-3.2c0.7-1.2,1.2-2.5,1.5-3.7c0.2-3.5,0.4-5,0.4-10.8c0-5.7,0-9.3,0.1-11c0.5-1.2,1.2-1.8,1.7-2.2l0,0
		c0.3,0,0.5,0.1,0.7,0.1c0.1,0,0.3,0.1,0.4,0.1c4.5,2.2,4.6,0.5,5.5-2.2c0,0,0.2-0.7,0.2-0.8C399,62.3,398.6,62.1,397.8,62
		 M422.9,63.7c-0.5-0.8-1.3-1.5-2.3-2.2c-1-0.6-1.9-1-2.7-1c-1.7-0.1-3.9-0.1-6.7,0.1c-2.8,0.2-5,0.5-6.5,0.8
		c-0.9,0.2-1.6,0.6-2.1,1.2c-0.3,0.3-0.6,0.7-0.8,1.2v-0.2l0.1,1.1c0,0.1,0,0.2,0,0.3c0,0.5,0.1,1.2,0.2,2.2l0.7,4.5v0.7
		c0,8.3,0,0.9,0,9.1c0,2.7,0,2.3,0,4.8c-0.1,2.4,0,1.5-0.3,4.6c-0.1,1.1-0.2,2.1-0.3,3.1c-0.6,4.4-0.5,2.5-0.7,3.7
		c-0.1,0.3,0.5,1.6,0.5,1.6s3.4,4.8,5,1.2c1.6-3.4,3.9-3.6,2-7.6c-0.2-0.5-0.4-1.3-0.6-2.2c-1.2-3.7-0.8-8.7-0.8-8.1
		c0-3.3,0-0.2,0-2.5c0.7-0.2,1.4-0.3,2-0.4c0.7-0.1,1.7-0.2,3.3-0.2c1.5,0,2.8-0.5,4.6-0.5c1.5-0.1,2.5-0.7,3.1-1.7s1.3-2,1.4-3.8
		c0.1-2.1,0.2-3.6,0.2-4.6c0-0.9,0.1-1.6,0.2-2.1c0.1-0.4,0.3-0.9,0.6-1.4C423.1,64.9,423.1,64.3,422.9,63.7 M416.5,73.1
		c1.1-0.8,1-2.3,1.3-3.1c0-0.4,0.1-0.8,0.1-1.2c-0.1-1.9-2-3.5-3.2-4.4c-2.7-0.2-4.8-0.3-6.4-0.3c-1.5,0.3-2.1,0.8-1.9,1.6
		c0.1,1.8,0.2,4.4,0.4,8c0,1.1,0.3,1.7,1,1.9C409.9,75.5,411.5,76.5,416.5,73.1"/>
	<path class="st0" d="M260.3,31.8c0,0.2-0.3,1.6-0.3,1.6c-1.7,5.5-1.9,8.7-10.7,4.4c-0.2,0-0.6-0.2-0.7-0.2
		c-0.4-0.1-0.8-0.1-1.3-0.3c0,0,0,0-0.1,0c-1.1,0.7-2.4,2.1-3.4,4.4c-0.2,3.4-0.3,10.6-0.3,21.6c0,11.4-0.2,20.5-0.7,27.3
		c-0.5,2.4-1.6,4.8-3,7.3c-1.4,2.4-3.3,4.5-5.6,6.3s-5,3.2-8.2,4.3c-3.1,1.1-5.5,1.6-7.2,1.6c-1.8,0-3.3-0.6-4.6-1.7
		c-1.3-1.2-2.2-2.4-2.8-3.7c-1.1-2.2-6.5-12.9-1.1-10.1c0.6,0.3,1.2,0.8,1.9,1.4c3.8,1,10.9,2.3,15.5-1.2c0.8-0.6,1.4-1.1,2-1.6
		c1.5-1.6,2.5-2.8,2.5-2.8s1.2-2.7,2.4-6.5c0.2-0.6,0.3-1.3,0.5-2.1c0.5-2.1,0.9-4,1.1-5.6c0-1.7,0-3.4,0-5.2c0-5.5,0-11,0.1-16.6
		c0-0.2,0-0.3,0-0.5l-1.6-8.2l0.1,0.1c-1.8-5-4.2-8-6.1-9.7c0,0-0.1,0-0.1-0.1c-0.8-0.4-1.6-0.7-2.4-0.9c-2.9,0.1-6.2,0.2-9.9,0.4
		c-1.3,0.1-2.5,0.2-3.8,0.3c-11.9,2.7-17.6,8.4-19.8,9.5c-2.8,1.4-5.2-7.2-5.2-7.2h0.1c0-0.1-0.1-0.3-0.1-0.4c0-0.7,0.1-1.4,0.4-2
		c0.2-0.6,0.5-1.1,1-1.5c0.4-0.4,1.1-0.9,1.9-1.5c0.9-0.6,1.5-1,1.9-1.2c0.9-0.9,2.3-1.3,4-1.1c1.3,0,3,0,5.3-0.1
		c2.2-0.1,4.7-0.3,7.4-0.5s5.1-0.4,7.3-0.5c2.1-0.1,5.1-0.1,8.8-0.1c3.9,0,7.5,0,10.9,0.1c3.4,0,6.5,0.1,9.4,0.2
		c2.8,0.1,5,0.2,6.3,0.2s3.3,0.2,5.9,0.5C259.5,30.3,260.3,30.9,260.3,31.8 M185.8,82.7c-0.3-0.2-0.6-0.1-0.9,0.1
		c-0.3,0.2-0.6,0.7-0.9,1.3c-4.1,5.3-6.1,6.9-8.9,9.2c-0.9,0.4-1.9,0.8-3,1.1c-0.7-0.2-1.5-0.3-2.3-0.3c-4.4,0-8,3.3-8,7.4
		s3.6,7.4,8,7.4c3.4,0,6.3-1.9,7.4-4.7l0.1-0.1c1.9-2.8,3.7-6,5.4-9.3c2.3-4.3,2-5.7,3.2-9.3c0.2-0.7,0.3-1.4,0.3-1.9
		C186.3,83.2,186.1,82.8,185.8,82.7 M211.1,75.1c-2.3,0-4,0.1-5,0.3c-1,0.1-2.1,0.3-3.2,0.5c-1.1,0.2-1.9,0.2-2.5-0.1
		c-1.7-0.5-2.4-1.5-2.3-3c-1.2-5.1-2.1-9.3-2.6-12.8c-0.6-3.5-0.9-5.9-1-7.3c0-1.5,0.4-2.7,1.1-3.6c0.7-0.9,1.8-1.5,3.2-1.8
		c2.3-0.5,5.6-0.9,10-1.2c4.3-0.3,7.8-0.4,10.4-0.2c1.2,0,2.6,0.5,4.1,1.5c1.6,1,2.8,2.1,3.6,3.3c0.4,0.9,0.3,1.8-0.1,2.6
		c-0.4,0.8-0.7,1.6-0.9,2.2c-0.2,0.6-0.3,1.7-0.3,3.2c-0.1,1.5-0.2,3.8-0.4,7c-0.1,2.8-0.6,4.9-1.5,6.5s-2.5,2.4-4.8,2.6
		C216,75.1,213.4,75.1,211.1,75.1 M216.1,63.6c1.6-1.3,2.5-2.6,2.8-3.8c0-0.6,0.1-1.2,0.1-1.8c-0.5-2.8-3.6-5.1-5.5-6.3
		c-4.1,0.1-7.4,0.2-9.8,0.4c-2.2,0.6-3.1,1.6-2.6,2.8c0.4,2.7,1,6.7,1.8,12.2c0.1,1.6,0.7,2.5,1.7,2.7
		C207.5,69.3,208.9,69.5,216.1,63.6 M169.9,42.9c0.1,0,0.2,0,0.3,0l0,0l0,0c1-0.1,1.9-0.3,2.8-0.8c1.5-0.3,3.6-0.5,5.9-0.3
		c1.4,0.6,2.5,1,3.4,1.2c1,0.1,1.6,0.1,1.9-0.2c0.3-0.3,0.4-0.8,0.2-1.4c-0.2-0.7-0.5-1.5-1.1-2.3c-1.5-1.6-2.7-2.8-3.7-3.8
		s-2-1.9-3.1-2.8c-1-0.9-2-1.6-2.8-2.1s-1.5-0.8-2.1-0.8c-0.1,0-0.2,0-0.3,0c-0.5-0.1-0.9-0.2-1.4-0.2c-3.7,0-6.7,3-6.7,6.7
		C163.2,39.9,166.2,42.9,169.9,42.9 M168.1,70.2c1.5,0,2.9-0.5,4.1-1.4c1.7-0.5,4.1-0.9,6.9-0.8c0.4,0,0.6,0,0.9,0
		c2.1,0.3,3.5,0.3,4-0.1c0.6-0.4,0.1-1.3-1.4-2.7c-1-0.6-3-2-5.8-4c-1.6-1.1-2.9-1.9-4-2.5c-1.2-1.2-2.9-1.9-4.7-1.9
		c-3.7,0-6.7,3-6.7,6.7C161.5,67.2,164.5,70.2,168.1,70.2"/>
	<path class="st0" d="M284.7,50.2c9.5-0.6,16.3-1.1,20.5-1.4c4.2-0.3,8.1-0.4,11.6-0.5c3.6-0.1,11.2,0,16.3,0.2
		c5.2,0.2,7,0.3,8.4,0.3c0.2,0,0.3,0,0.5,0c3,0.4,5-1,5-1s0.5-1.3,1.8-8.1c1.5-8.2,2.3-9.1-2-10.5c-0.2-0.1-0.4-0.2-0.6-0.3
		c-1-0.4-2-0.7-3-0.8c-1.1-0.2-2.5-0.3-4.3-0.4h-14.7c-4.5,0-9.8,0-15.8,0.1c-6.1,0.1-11.6,0.2-16.4,0.5c-4.9,0.2-7.6,0.5-8.3,0.8
		c-0.6,0-1.1,0-1.6,0.1v-0.1c0,0-1.5,0.2-3.2,0.8c-3.9,1-11.2,4-6.9,11.8c3,5.5,5.1,10.9,6.4,16.4c0,1.8,0.1,3.7,0.1,5.8
		c0,4.6,0,8.7-0.2,12.2c-0.2,2.1-0.5,4-0.8,5.8c-3.5,9.5-11.6,15.2-15.6,17.5c-0.8,0.2-1.7,0.4-2.6,0.5c-10.4,1.2,6.4,10.7,6.4,10.7
		l0,0c0.4,0.3,1,0.4,1.8,0.4c1.2-0.1,2.9-1.3,5.2-3.5c2.3-2.3,4.3-5,6.1-8.3c1.8-3.3,3.2-7,4.2-11.3c1-4.2,1.7-8.8,2.1-13.5
		C285,61.4,284.9,53.4,284.7,50.2 M283.9,38.4c-0.4-2.2,0.4-3.4,2.4-3.6c3.1-0.6,6.8-0.9,11.1-1.1c4.3-0.1,9.4-0.2,15.2-0.3
		c5.9-0.1,10.4-0.1,13.8-0.1c3.3,0,8.5,0.1,12,0.4c1.6-0.1,2.4,0.5,2.5,1.8c-0.1,3-0.2,4.8-0.5,5.6s-1,1.1-2.4,1
		c-2,0.1-7.5,0.2-12.9,0.2s-9.5,0.1-12.2,0.1c-2.8,0-6.3,0.2-10.5,0.4s-10.2,0.5-18,0.9C284.3,42.9,284.2,41.1,283.9,38.4
		 M344.2,99.9c-0.3,0.1-0.5,0.2-0.7,0.2l-6.3,1.7c-2.2-0.2-4.7-0.4-7.4-0.5c-5.3-0.3-8.7-0.5-10.1-0.6c0-2,0.1-5.1,0.1-9.1
		c2.2,0,4.6,0,7.1,0.1s5.1,0.3,7.6,0.7c2.5,0.4,4.2,0.5,5.1,0.5c0.8,0,1.1-0.5,1-1.4c0.6-2.4,2.5-10.9-4.7-8.5
		c-2.5,0.8-4.3,1.7-5.7,2.4l-2.7,0.7c-3.7-0.3-6.3-0.3-7.7-0.2v-1c1.1-1,2.2-1.5,2.8-3.1c0.6-1.5-1.2-3-3-4.1
		c-0.3-0.5-0.9-1-1.8-1.3l0.1,0.5c-0.5-0.3-1-0.5-1.7-0.7c3.5-0.2,7.8-0.2,9.9-0.2c2,0,4,0.2,5.9,0.5s3.4,0.5,4.5,0.7
		c1.1,0.1,2,0,2.8-0.2c1.1-0.7,1.9-1.3,2.5-1.8c0.5-0.5,0.6-1.3,0.2-2.3c-0.6-1-1.3-2-2.1-2.9c-0.8-0.9-1.9-1.9-3.3-3
		c-1.3-1.1-2.9-2.2-4.6-3.2c-1.7-1-3.2-1.6-4.3-1.8c-1-0.3-1.5,0-1.4,0.9c0.1,0.6,0.8,1.6,2,3c1,1.8,2,4.5,0.1,5.3
		c-2.3,0-6.4,0.1-9.1,0.2s-6,0.3-9.8,0.5c-2.4-1.7,0.2-4.8,1.5-6.2c0.4-0.3,0.7-0.6,0.9-0.8c0.7-0.6,1.1-1.1,1.3-1.7
		c0.2-0.5,0.2-1.3-0.1-2.4c1.5,0,3.1,0,4.6-0.1c1.6-0.1,3.1-0.1,4.7-0.1s4,0.2,7.1,0.5c3.2,0.3,4.4,0.9,9.5,1.8
		c1.7,0,4.5-0.2,5.5-0.6c1.1-0.3,1.9-0.9,2.4-1.6c0-0.1,0.1-0.2,0.1-0.2l0,0v-0.1c0-0.1,0.1-0.2,0.2-0.3c0.5-1.6-1.1-3.4-1.1-3.4
		c-1.9-1.5-2-3.9-4.9-2.1c-1.9,1.2-5.2,1.1-8.1,1.4c-0.3,0-0.5,0-0.8-0.1c-5-0.3-6.7-0.5-11-0.5c-4.4,0-8.4,0.1-12.2,0.3
		c-1.7,0.1-3.7,0.2-5.8,0.3c-7-0.4-9.8-2-9.8-2c-7.6,0.3-6.5,6.3-5.9,8.3c0,0.9,0.4,1.3,1.3,1.3c0.7-0.2,3.3-0.6,7.8-1.1
		c4.6-0.6,7.8-1,9.8-1.3c-1.4,1.4-2.8,2.7-4.3,4c-1.5,1.3-3.4,2.8-5.7,4.6c-0.5,0.3-1.3,0.9-2.4,1.7c-1.1,0.8-1.5,1.6-1.2,2.5
		c0.2,1.1,0.7,2.1,1.6,3.1c0.9,0.9,1.6,1.4,2.2,1.5c0.5,0.1,2.2-0.1,5-0.7s7-1,12.7-1.5c-0.9,0.3-1.5,0.8-1.8,1.3
		c-1.8,1.1-3.6,2.6-3,4.1c0.6,1.6,1.7,2.1,2.8,3.1v1c-1.4-0.1-4-0.1-7.7,0.2l-2.7-0.7c-1.3-0.8-3.2-1.6-5.6-2.4
		c-7.1-2.3-5.3,6.1-4.7,8.5c-0.1,0.9,0.2,1.3,1,1.4c0.9,0,2.6-0.1,5.1-0.5s5-0.6,7.6-0.7s4.9-0.1,7.1-0.1c0.1,4,0.1,7,0.1,9.1
		c-1.5,0.1-4.8,0.3-10.2,0.6c-2.7,0.2-5.1,0.3-7.4,0.5l-6.3-1.7c-0.2-0.1-0.5-0.2-0.7-0.2c-6.2-2-5.6,4.1-5,7.3c0,0.2,0,0.5,0,0.7
		c-0.1,1,0.6,1.6,2,1.6c1.7,0,3.1-0.3,4.1-0.9c2-0.7,5.1-1.2,9.5-1.7c4.4-0.4,9-0.7,14-0.8h6.8c4.9,0.1,9.6,0.4,14,0.8
		s7.5,1,9.5,1.7c1,0.6,2.4,0.9,4.1,0.9c1.5,0,2.1-0.5,2-1.6c0-0.2,0-0.5,0-0.7C349.8,104,350.4,97.9,344.2,99.9 M291.6,102
		c-0.2-0.1-0.3-0.2-0.5-0.3l0.6,0.2C291.6,102,291.6,102,291.6,102"/>
</g>
</svg>
