<svg xmlns="http://www.w3.org/2000/svg" viewBox="0 0 300 69.93" height="69.932213" width="300"><title>Amazon.co.jp logo</title><path style="fill:#000000;" d="M255.31,42.28a2.9,2.9,0,1,1,2.9,2.76,2.83,2.83,0,0,1-2.9-2.76m20.41-30.07h2.39a1,1,0,0,1,1,.93V17.3c1.78-3.56,4.46-5.73,8.61-5.73s6.61,2.19,8.63,5.61A22.57,22.57,0,0,1,299,28.44c0,8-3.22,16.89-11.71,16.89-3.67,0-5.87-2-7.77-4.76V54.4a1,1,0,0,1-1,.93h-2.76a1,1,0,0,1-1-.93V13.14a1,1,0,0,1,1-.93m3.8,14.05v4.66a13.53,13.53,0,0,0,1.63,6.66,7,7,0,0,0,5.66,3.64c2.27-.11,4.18-1.76,5.33-4A18.44,18.44,0,0,0,293.77,29c0-5.12-1.16-12.79-6.82-13a7.49,7.49,0,0,0-5.81,3.82,11.49,11.49,0,0,0-1.62,6.51M264.74,3.81a3,3,0,0,1,5.93,0,3,3,0,0,1-5.93,0m5.35,9.44,0,32.06c0,2.49-.11,5.36-1.43,7.52-1.48,2.42-3.79,3.37-6.8,3.37a14.18,14.18,0,0,1-3.38-.39,1.14,1.14,0,0,1-.92-1v-2.1c0-.5.36-1.1.93-1a10.3,10.3,0,0,0,2.46.38c3.95-.1,4.37-2.76,4.37-6.75V13.25a1,1,0,0,1,1-.9H269a1.07,1.07,0,0,1,1.07.91m-74,29A2.92,2.92,0,1,1,199,45a2.85,2.85,0,0,1-2.92-2.77M241,45.34c-8.4,0-12.17-8.57-12.17-17.15,0-9,4.43-16.83,12.89-16.83h.45c8.24,0,12.33,8.32,12.33,16.89,0,9.08-4.53,17.08-13,17.08H241Zm.62-4.17c2.77-.09,4.95-1.8,6.24-4.66a20.22,20.22,0,0,0,1.38-8.32,18.71,18.71,0,0,0-1.76-8.9,6.4,6.4,0,0,0-12,.77,21.22,21.22,0,0,0-1.38,8.13,21.63,21.63,0,0,0,1.6,8.89,7,7,0,0,0,5.92,4.09M214.76,41c3.77-.11,5.75-3.14,6.57-7.06a1.15,1.15,0,0,1,1.08-.86h2.5a1.07,1.07,0,0,1,1.08,1c-1.15,6.67-5.18,11.2-10.92,11.2h-.45c-8.35,0-11.94-8.39-11.94-16.9s3.64-17.08,12-17.08h.45c5.79,0,9.93,4.47,10.82,11.14a1.1,1.1,0,0,1-1,1l-2.61,0a1.22,1.22,0,0,1-1-1.07c-.63-3.73-2.77-6.69-6.33-6.8-5.68.18-7.29,7.17-7.29,12.54,0,5.18,1.35,12.73,7,12.92M72,14.88c1.88,2.56,1.49,6.27,1.49,9.53V43.59a1.12,1.12,0,0,1-1.15,1.1H66.43a1.12,1.12,0,0,1-1.07-1.09V27.48a38.39,38.39,0,0,0-.17-5.69c-.45-2-1.76-2.62-3.48-2.62a3.93,3.93,0,0,0-3.54,2.49c-.61,1.53-.55,4.09-.55,5.82V43.59a1.12,1.12,0,0,1-1.15,1.1H50.57A1.12,1.12,0,0,1,49.5,43.6V27.48c0-3.39.55-8.38-3.65-8.38S41.75,24,41.75,27.48V43.59a1.12,1.12,0,0,1-1.15,1.1H34.68a1.11,1.11,0,0,1-1.06-1V13.29a1.11,1.11,0,0,1,1.14-1.1h5.51a1.11,1.11,0,0,1,1.08,1v4h.11c1.45-3.84,4.15-5.63,7.8-5.63s6,1.79,7.68,5.63a8.75,8.75,0,0,1,15-2.3ZM29,39.12a1.12,1.12,0,0,1,0,1.57c-1.22,1-3.36,2.88-4.54,3.94v0a1.23,1.23,0,0,1-1.4.14,14.39,14.39,0,0,1-3.4-4c-3.25,3.32-5.55,4.31-9.76,4.31C4.88,45.11,1,42,1,35.87a10.06,10.06,0,0,1,6.32-9.68c3.21-1.41,7.7-1.67,11.13-2.05v-.77c0-1.41.11-3.07-.72-4.29a4,4,0,0,0-3.33-1.54,4.5,4.5,0,0,0-4.76,3.56,1.25,1.25,0,0,1-1,1.09l-5.75-.62A1,1,0,0,1,2,20.32c1.32-7,7.61-9.07,13.25-9.07,2.88,0,6.65.77,8.92,3,2.88,2.69,2.6,6.28,2.6,10.19v9.23C26.77,36.4,27.92,37.62,29,39.12ZM18.46,30.17V28.89c-4.28,0-8.81.92-8.81,6,0,2.57,1.33,4.29,3.61,4.29a4.79,4.79,0,0,0,4.1-2.69C18.51,34.4,18.46,32.47,18.46,30.17Zm88.2,8.95a1.11,1.11,0,0,1,0,1.57c-1.21,1-3.36,2.88-4.54,3.94v0a1.23,1.23,0,0,1-1.41.14,14.38,14.38,0,0,1-3.39-4c-3.26,3.32-5.56,4.31-9.77,4.31-5,0-8.86-3.08-8.86-9.23A10.06,10.06,0,0,1,85,26.19c3.21-1.41,7.69-1.67,11.13-2.05v-.77c0-1.41.11-3.07-.72-4.29a4,4,0,0,0-3.33-1.54,4.5,4.5,0,0,0-4.76,3.56,1.25,1.25,0,0,1-1,1.09l-5.74-.62a1,1,0,0,1-.88-1.24c1.32-7,7.6-9.07,13.24-9.07,2.89,0,6.65.77,8.93,3,2.88,2.69,2.6,6.28,2.6,10.19v9.23C104.43,36.4,105.58,37.62,106.65,39.12ZM96.11,30.17V28.89c-4.29,0-8.81.92-8.81,6,0,2.57,1.32,4.29,3.6,4.29A4.81,4.81,0,0,0,95,36.45C96.17,34.4,96.11,32.47,96.11,30.17Zm67.53-1.47c0,9.27-5.26,16.63-13.55,16.63-8.63,0-13.33-7.55-13.33-17s4.76-16.82,13.33-16.82C158.88,11.55,163.64,19.1,163.64,28.7Zm-8.74.06A28,28,0,0,0,154,20.7a3.7,3.7,0,0,0-3.87-2.94c-4.36,0-4.64,5.95-4.64,9.66s-.06,11.64,4.59,11.64S154.9,32.66,154.9,28.76Zm35.94-13.63a7.76,7.76,0,0,0-6.9-3.58c-4.1,0-6.42,2-8.08,6.14h-.11V13a1.12,1.12,0,0,0-1.05-.85H169.2a1.13,1.13,0,0,0-1.14,1l0,30.41a1.11,1.11,0,0,0,1.06,1.09H175a1.14,1.14,0,0,0,1.16-1.1V27.22a13.53,13.53,0,0,1,.94-5.76A3.86,3.86,0,0,1,180.57,19c4.08,0,3.7,4.86,3.7,8.19V43.73a1.12,1.12,0,0,0,1.06,1h5.94a1.13,1.13,0,0,0,1.13-1V24.6C192.4,21.66,192.4,17.56,190.84,15.13Zm-58,21.32a21.63,21.63,0,0,0-11.11-2.38l10.09-14.4c.94-1.29,1.46-2.11,1.46-2.74V13.2a1.09,1.09,0,0,0-1.12-1.09H112.73a1.07,1.07,0,0,0-1.1,1.1v4.34a1.08,1.08,0,0,0,1.12,1.09h10.18L111.25,35.42a5.21,5.21,0,0,0-.72,3v4.41c0,.64.71,1.37,1.39,1a22.42,22.42,0,0,1,20.57,0c.73.39,1.43-.35,1.43-1V38.14A2,2,0,0,0,132.88,36.45Z"/><path style="fill:#ff9900;" d="M119.74,56.36C108.62,64.57,92.5,68.93,78.62,68.93A74.43,74.43,0,0,1,28.38,49.77c-1-.95-.11-2.23,1.14-1.5A101.12,101.12,0,0,0,79.79,61.61a99.93,99.93,0,0,0,38.33-7.85c1.88-.8,3.46,1.24,1.62,2.6m4.63-5.28c-1.42-1.82-9.4-.86-13-.44-1.09.13-1.26-.82-.28-1.5,6.36-4.47,16.8-3.18,18-1.69s-.32,12-6.28,17c-.92.77-1.79.36-1.38-.65,1.34-3.35,4.35-10.86,2.92-12.68"/></svg>